<svg width="15" height="12" viewBox="0 0 15 12" fill="none" xmlns="http://www.w3.org/2000/svg">
<path d="M13.5 2.52632H11.865C11.9475 2.33053 12 2.11579 12 1.89474C12 0.846316 10.995 0 9.75 0C8.9625 0 8.28 0.341053 7.875 0.852632L7.5 1.27579L7.125 0.846316C6.72 0.341053 6.0375 0 5.25 0C4.005 0 3 0.846316 3 1.89474C3 2.11579 3.0525 2.33053 3.135 2.52632H1.5C0.6675 2.52632 0.00749999 3.08842 0.00749999 3.78947L0 10.7368C0 11.4379 0.6675 12 1.5 12H13.5C14.3325 12 15 11.4379 15 10.7368V3.78947C15 3.08842 14.3325 2.52632 13.5 2.52632ZM9.75 1.26316C10.1625 1.26316 10.5 1.54737 10.5 1.89474C10.5 2.24211 10.1625 2.52632 9.75 2.52632C9.3375 2.52632 9 2.24211 9 1.89474C9 1.54737 9.3375 1.26316 9.75 1.26316ZM5.25 1.26316C5.6625 1.26316 6 1.54737 6 1.89474C6 2.24211 5.6625 2.52632 5.25 2.52632C4.8375 2.52632 4.5 2.24211 4.5 1.89474C4.5 1.54737 4.8375 1.26316 5.25 1.26316ZM13.5 10.7368H1.5V9.47368H13.5V10.7368ZM13.5 7.57895H1.5V3.78947H5.31L3.75 5.57684L4.965 6.31579L6.75 4.26947L7.5 3.41053L8.25 4.26947L10.035 6.31579L11.25 5.57684L9.69 3.78947H13.5V7.57895Z" fill="white"/>
</svg>
