<svg width="13" height="14" viewBox="0 0 13 14" fill="none" xmlns="http://www.w3.org/2000/svg">
<path d="M3.57143 13.3C3.57143 13.685 3.97321 14 4.46429 14H8.03571C8.52679 14 8.92857 13.685 8.92857 13.3V12.6H3.57143V13.3ZM6.25 0C2.80357 0 0 2.198 0 4.9C0 6.566 1.0625 8.029 2.67857 8.918V10.5C2.67857 10.885 3.08036 11.2 3.57143 11.2H8.92857C9.41964 11.2 9.82143 10.885 9.82143 10.5V8.918C11.4375 8.029 12.5 6.566 12.5 4.9C12.5 2.198 9.69643 0 6.25 0ZM8.03571 8.19V9.8H4.46429V8.19C3.10714 7.441 1.78571 6.671 1.78571 4.9C1.78571 2.968 3.78571 1.4 6.25 1.4C8.71429 1.4 10.7143 2.968 10.7143 4.9C10.7143 6.643 9.36607 7.455 8.03571 8.19Z" fill="white"/>
</svg>
