<svg width="33" height="18" viewBox="0 0 33 18" fill="none" xmlns="http://www.w3.org/2000/svg">
<path d="M16.6667 0.5C9.39402 0.5 3.18311 4.02467 0.666748 9C3.18311 13.9753 9.39402 17.5 16.6667 17.5C23.9395 17.5 30.1504 13.9753 32.6667 9C30.1504 4.02467 23.9395 0.5 16.6667 0.5ZM16.6667 14.6667C12.6522 14.6667 9.39402 12.128 9.39402 9C9.39402 5.872 12.6522 3.33333 16.6667 3.33333C20.6813 3.33333 23.9395 5.872 23.9395 9C23.9395 12.128 20.6813 14.6667 16.6667 14.6667ZM16.6667 5.6C14.2522 5.6 12.3031 7.11867 12.3031 9C12.3031 10.8813 14.2522 12.4 16.6667 12.4C19.0813 12.4 21.0304 10.8813 21.0304 9C21.0304 7.11867 19.0813 5.6 16.6667 5.6Z" fill="#D9D9D9"/>
</svg>
