<?xml version="1.0" ?><svg viewBox="0 0 64 64" xmlns="http://www.w3.org/2000/svg"><defs><style>.cls-1{fill:none;}.cls-1,.cls-2{stroke:#000;stroke-linecap:round;stroke-linejoin:round;stroke-width:2px;}.cls-2{fill:#fff;}</style></defs><g id="positive-deal"><path class="cls-1" d="M30.3,58.44,32.56,60l1.26.81a2.64,2.64,0,0,0,3.62-.89h0a2.63,2.63,0,0,0-.91-3.61L33.65,54.7"/><path class="cls-1" d="M30.51,25.51a9.6,9.6,0,0,0-8.9-.56h0a9.28,9.28,0,0,1-4.93.73l-4.48-.56L8,23,3,35l3.91,3.33,5.74,7.18"/><path class="cls-1" d="M33.93,54.86l4,2.26a2.75,2.75,0,0,0,3.6-.6,2.65,2.65,0,0,0-.74-3.85h0l1.37.82a2.74,2.74,0,0,0,3.6-.6A2.64,2.64,0,0,0,45,49l1.38.82a2.74,2.74,0,0,0,3.6-.6,2.64,2.64,0,0,0-.76-3.85l-.44-.27-7.17-4.23"/><circle class="cls-1" cx="55.5" cy="56.5" r="2.5"/><path d="M58.07,17A1.07,1.07,0,1,1,57,16,1.07,1.07,0,0,1,58.07,17Z"/><path class="cls-1" d="M54.19,22.12,62.12,38l-12,7.41L36,38c-1.72-.52-3.22-1.88-3.55-4.91l-7.26.66a3.07,3.07,0,0,1-3.2-2.1h0a3.07,3.07,0,0,1,2-3.91l10.54-3.33a6.71,6.71,0,0,1,5.95.95l.38.27a6.25,6.25,0,0,0,6.4.5h0Z"/><path class="cls-2" d="M42.15,37.45a11.7,11.7,0,0,1-5.23.7L36,38"/><path class="cls-1" d="M12.8,49.42h0a2.65,2.65,0,0,1,0-3.74l1.25-1.25a2.65,2.65,0,0,1,3.74,0h0a2.65,2.65,0,0,1,0,3.74l-1.25,1.25A2.65,2.65,0,0,1,12.8,49.42Z"/><path class="cls-1" d="M16.54,53.15h0a2.64,2.64,0,0,1,0-3.73L19,46.93a2.63,2.63,0,0,1,3.74,0h0a2.64,2.64,0,0,1,0,3.73l-2.49,2.49A2.63,2.63,0,0,1,16.54,53.15Z"/><path class="cls-1" d="M20.28,56.89h0a2.65,2.65,0,0,1,0-3.74L24,49.42a2.65,2.65,0,0,1,3.74,0h0a2.64,2.64,0,0,1,0,3.73L24,56.89A2.64,2.64,0,0,1,20.28,56.89Z"/><path class="cls-1" d="M24,60.63h0a2.65,2.65,0,0,1,0-3.74l5-5a2.64,2.64,0,0,1,3.73,0h0a2.63,2.63,0,0,1,0,3.74l-5,5A2.65,2.65,0,0,1,24,60.63Z"/><line class="cls-1" x1="40.77" x2="37.75" y1="52.66" y2="50.85"/><line class="cls-1" x1="40.46" x2="44.65" y1="46.32" y2="48.82"/><circle class="cls-1" cx="32" cy="11" r="6"/><polyline class="cls-1" points="30 12 31.5 13 34 9"/></g></svg>