<?xml version="1.0" ?><!DOCTYPE svg  PUBLIC '-//W3C//DTD SVG 1.1//EN'  'http://www.w3.org/Graphics/SVG/1.1/DTD/svg11.dtd'><svg height="512px" style="enable-background:new 0 0 512 512;" version="1.1" viewBox="0 0 512 512" width="512px" xml:space="preserve" xmlns="http://www.w3.org/2000/svg" xmlns:xlink="http://www.w3.org/1999/xlink"><g id="_x36_15_x2C__gift_x2C___love_x2C__heart_x2C__wedding"><g><path d="M154.23,70.043c13.44,13.45,7.76,34.44,7.87,61.21c-26.76-0.12-47.74,5.55-61.18-7.89    c-7.42-7.43-7.48-19.42-0.12-26.77c6.66-6.66,13.35-6.63,23.41-3.24c-3.39-10.06-3.42-16.75,3.24-23.41    C134.82,62.573,146.81,62.623,154.23,70.043z" style="fill:#EF3E5C;"/><g><g><g><path d="M154.23,70.043c-7.42-7.42-19.41-7.47-26.78-0.1c-2.136,2.136-3.577,4.277-4.446,6.53       c7.097-3.586,16.011-2.395,21.976,3.57c11.746,11.754,8.889,29.268,8.055,51.365c2.943-0.103,5.963-0.169,9.065-0.155       C161.99,104.483,167.67,83.493,154.23,70.043z" style="fill:#E42A53;"/></g></g></g><path d="M263.37,117.783c8.07,8.08,8.02,21.22-0.12,29.35c-14.73,14.73-37.73,8.5-67.07,8.63    c0.13-29.33-6.08-52.32,8.65-67.06c8.13-8.13,21.27-8.19,29.33-0.13c7.3,7.31,7.27,14.64,3.56,25.66    C248.73,110.513,256.07,110.483,263.37,117.783z" style="fill:#BE0000;"/><g><path d="M213.08,97.25c6.833-6.833,17.197-7.942,25.118-3.343c-0.958-1.813-2.281-3.574-4.038-5.333     c-8.06-8.06-21.2-8-29.33,0.13c-14.73,14.74-8.52,37.73-8.65,67.06c2.767-0.012,5.478,0.032,8.13,0.11     C203.543,130.555,199.793,110.545,213.08,97.25z" style="fill:#900000;"/></g><polygon points="222.17,245.673 222.17,191.303 318.49,191.303 367.15,340.383 367.15,445.023     222.17,445.023   " style="fill:#F78F4B;"/><polygon points="234.045,257.298 234.045,202.928 322.285,202.928 318.49,191.303 222.17,191.303     222.17,245.673 222.17,445.023 234.045,445.023   " style="fill:#DD773E;"/><polygon points="176.87,191.303 176.87,245.673 176.87,445.023 222.17,445.023 222.17,245.673     222.17,191.303   " style="fill:#F7B64C;"/><polygon points="185.93,254.423 185.93,200.053 222.17,200.053 222.17,191.303 176.87,191.303     176.87,245.673 176.87,445.023 185.93,445.023   " style="fill:#E0A044;"/><polygon points="40.95,191.303 40.95,245.673 40.95,445.023 81.73,445.023 176.87,445.023 176.87,245.673     176.87,191.303   " style="fill:#F78F4B;"/><polygon points="51.45,255.923 51.45,201.553 176.87,201.553 176.87,191.303 40.95,191.303 40.95,245.673     40.95,445.023 51.45,445.023   " style="fill:#DD773E;"/><path d="M81.73,395.223c-2.761,0-5-2.238-5-5v-108.74c0-2.762,2.239-5,5-5s5,2.238,5,5v108.74    C86.73,392.984,84.491,395.223,81.73,395.223z" style="fill:#DD773E;"/><path d="M81.73,259.303c-2.761,0-5-2.238-5-5v-3.63c0-2.762,2.239-5,5-5s5,2.238,5,5v3.63    C86.73,257.064,84.491,259.303,81.73,259.303z" style="fill:#DD773E;"/><path d="M335.91,250.673H45.95c-2.761,0-5-2.239-5-5s2.239-5,5-5h289.96c2.762,0,5,2.239,5,5    S338.672,250.673,335.91,250.673z" style="fill:#DD773E;"/><polygon points="372.64,123.573 471.05,425.063 402.14,447.554 367.15,340.383 318.49,191.303     303.73,146.073   " style="fill:#FFD55E;"/><polygon points="382.101,348.471 333.44,199.391 318.681,154.161 376.465,135.293 372.64,123.573     303.73,146.073 318.49,191.303 367.15,340.383 402.14,447.554 413.264,443.923   " style="fill:#F7B64C;"/><path d="M463.572,305.514c-1.096,0-2.199-0.358-3.121-1.096l-45.311-36.25    c-1.383-1.105-2.076-2.859-1.826-4.611l9.061-63.43c0.391-2.734,2.928-4.638,5.656-4.243c2.734,0.391,4.633,2.923,4.244,5.657    l-8.658,60.603l43.082,34.466c2.156,1.726,2.504,4.871,0.779,7.028C466.492,304.871,465.037,305.514,463.572,305.514z" style="fill:#FFD55E;"/></g></g><g id="Layer_1"/></svg>