<?xml version="1.0" ?><svg id="Icons" viewBox="0 0 48 48" xmlns="http://www.w3.org/2000/svg"><defs><style>.cls-1{fill:#a86c4d;}.cls-1,.cls-10,.cls-11,.cls-15,.cls-5,.cls-6,.cls-7,.cls-8{stroke:#45413c;stroke-linecap:round;stroke-linejoin:round;}.cls-11,.cls-2,.cls-9{fill:#45413c;}.cls-2{opacity:0.15;}.cls-3,.cls-8{fill:#fff;}.cls-15,.cls-4{fill:#f0f0f0;}.cls-5{fill:none;}.cls-14,.cls-6{fill:#ffb59e;}.cls-7{fill:#00dfeb;}.cls-10{fill:#ffcebf;}.cls-12{fill:#ff6242;}.cls-13{fill:#ffa694;}</style></defs><title/><path class="cls-1" d="M24,6.32A10.88,10.88,0,0,1,34.88,17.19V31.38a1.24,1.24,0,0,1-.77,1.14h0a27.09,27.09,0,0,1-20.22,0h0a1.24,1.24,0,0,1-.77-1.14V17.19A10.88,10.88,0,0,1,24,6.32Z" data-name="&lt;Path&gt;" id="_Path_"/><ellipse class="cls-2" cx="24" cy="45.51" data-name="&lt;Ellipse&gt;" id="_Ellipse_" rx="13.5" ry="1.5"/><path class="cls-3" d="M24,31.22h0A11.88,11.88,0,0,1,35.88,43.1V45a0,0,0,0,1,0,0H12.12a0,0,0,0,1,0,0V43.1A11.88,11.88,0,0,1,24,31.22Z" data-name="&lt;Rectangle&gt;" id="_Rectangle_"/><path class="cls-4" d="M24,31.22h0A11.88,11.88,0,0,0,12.12,43.1V45h.1A11.88,11.88,0,0,1,24,34.62h0A11.88,11.88,0,0,1,35.78,45h.1V43.1A11.88,11.88,0,0,0,24,31.22Z" data-name="&lt;Path&gt;" id="_Path_2"/><path class="cls-5" d="M24,31.22h0A11.88,11.88,0,0,1,35.88,43.1V45a0,0,0,0,1,0,0H12.12a0,0,0,0,1,0,0V43.1A11.88,11.88,0,0,1,24,31.22Z" data-name="&lt;Rectangle&gt;" id="_Rectangle_2"/><path class="cls-6" d="M24,27.18a2.54,2.54,0,0,0-2.54,2.54v2.85a2.54,2.54,0,1,0,5.08,0V29.72A2.54,2.54,0,0,0,24,27.18Z"/><line class="cls-5" data-name="&lt;Path&gt;" id="_Path_3" x1="17.06" x2="17.06" y1="45" y2="42.59"/><line class="cls-5" data-name="&lt;Path&gt;" id="_Path_4" x1="30.94" x2="30.94" y1="45" y2="42.59"/><path class="cls-7" d="M21.46,31.22c0,1.1.73,2,2.54,2s2.54-.89,2.54-2a2.77,2.77,0,0,1,.74,1.91c0,1.27-1.47,2-3.28,2s-3.28-.77-3.28-2A2.71,2.71,0,0,1,21.46,31.22Z" data-name="&lt;Path&gt;" id="_Path_5"/><path class="cls-8" d="M24,35.12h2.78a1.5,1.5,0,0,1,1.51,1.5V45" data-name="&lt;Path&gt;" id="_Path_6"/><line class="cls-5" data-name="&lt;Path&gt;" id="_Path_7" x1="24" x2="24" y1="35.12" y2="33.21"/><g data-name="&lt;Group&gt;" id="_Group_"><path class="cls-9" d="M21.84,37.4a.75.75,0,1,0,0,1.5.75.75,0,0,0,0-1.5Z"/></g><g data-name="&lt;Group&gt;" id="_Group_2"><path class="cls-9" d="M26.15,37.4a.75.75,0,1,0,.75.75.75.75,0,0,0-.75-.75Z"/></g><g data-name="&lt;Group&gt;" id="_Group_3"><path class="cls-9" d="M21.84,40.81a.75.75,0,1,0,.75.75.75.75,0,0,0-.75-.75Z"/></g><g data-name="&lt;Group&gt;" id="_Group_4"><path class="cls-9" d="M26.15,40.81a.75.75,0,0,0,0,1.5.75.75,0,1,0,0-1.5Z"/></g><g data-name="&lt;Group&gt;" id="_Group_5"><path class="cls-10" d="M33.07,19.47a8.77,8.77,0,0,1-5.68-5L26.77,13a15.92,15.92,0,0,1-9.95,6.18l-1.88.34a1.81,1.81,0,1,0,0,3.62h.11a9,9,0,0,0,17.9,0h.12a1.81,1.81,0,1,0,0-3.62Z" data-name="&lt;Path&gt;" id="_Path_8"/></g><path class="cls-11" d="M18.57,20.91a.77.77,0,1,0,.77-.77A.76.76,0,0,0,18.57,20.91Z" data-name="&lt;Path&gt;" id="_Path_9"/><path class="cls-11" d="M29.43,20.91a.77.77,0,1,1-.77-.77A.76.76,0,0,1,29.43,20.91Z" data-name="&lt;Path&gt;" id="_Path_10"/><g data-name="&lt;Group&gt;" id="_Group_6"><g data-name="&lt;Group&gt;" id="_Group_7"><g data-name="&lt;Group&gt;" id="_Group_8"><g data-name="&lt;Group&gt;" id="_Group_9"><g data-name="&lt;Group&gt;" id="_Group_10"><g data-name="&lt;Group&gt;" id="_Group_11"><g data-name="&lt;Group&gt;" id="_Group_12"><path class="cls-12" d="M21.16,25.6a.44.44,0,0,0-.33.16.42.42,0,0,0-.1.35,3.32,3.32,0,0,0,6.54,0,.42.42,0,0,0-.1-.35.42.42,0,0,0-.33-.16Z" data-name="&lt;Path&gt;" id="_Path_11"/><path class="cls-13" d="M24,27a4,4,0,0,0-2.52.77,3.36,3.36,0,0,0,5,0A4,4,0,0,0,24,27Z" data-name="&lt;Path&gt;" id="_Path_12"/></g></g></g></g></g></g></g><g data-name="&lt;Group&gt;" id="_Group_13"><path class="cls-5" d="M21.16,25.6a.44.44,0,0,0-.33.16.42.42,0,0,0-.1.35,3.32,3.32,0,0,0,6.54,0,.42.42,0,0,0-.1-.35.42.42,0,0,0-.33-.16Z" data-name="&lt;Path&gt;" id="_Path_13"/></g><ellipse class="cls-14" cx="18.06" cy="24.19" data-name="&lt;Ellipse&gt;" id="_Ellipse_2" rx="1" ry="0.6"/><ellipse class="cls-14" cx="29.94" cy="24.19" data-name="&lt;Ellipse&gt;" id="_Ellipse_3" rx="1" ry="0.6"/><path class="cls-4" d="M29.94,5.21A7.47,7.47,0,0,0,24,2.58a7.47,7.47,0,0,0-5.94,2.63c-2.62-1.27-7.18.3-7.18,4.54,0,3.95,2.79,4.83,2.79,4.83H34.33s2.79-.88,2.79-4.83C37.12,5.51,32.56,3.94,29.94,5.21Z" data-name="&lt;Path&gt;" id="_Path_14"/><path class="cls-3" d="M18.06,9.92A7.47,7.47,0,0,1,24,7.29a7.47,7.47,0,0,1,5.94,2.63,5.29,5.29,0,0,1,6.71,2.35,6.32,6.32,0,0,0,.47-2.52c0-4.24-4.56-5.81-7.18-4.54A7.47,7.47,0,0,0,24,2.58a7.47,7.47,0,0,0-5.94,2.63c-2.62-1.27-7.18.3-7.18,4.54a6.32,6.32,0,0,0,.47,2.52A5.29,5.29,0,0,1,18.06,9.92Z" data-name="&lt;Path&gt;" id="_Path_15"/><path class="cls-5" d="M29.94,5.21A7.47,7.47,0,0,0,24,2.58a7.47,7.47,0,0,0-5.94,2.63c-2.62-1.27-7.18.3-7.18,4.54,0,3.95,2.79,4.83,2.79,4.83H34.33s2.79-.88,2.79-4.83C37.12,5.51,32.56,3.94,29.94,5.21Z" data-name="&lt;Path&gt;" id="_Path_16"/><path class="cls-5" d="M30,9.08c0,2.67-2.69,4.83-6,4.83s-6-2.16-6-4.83" data-name="&lt;Path&gt;" id="_Path_17"/><path class="cls-15" d="M24,12.83c-5.71,0-10.88.78-10.88,1.75v2.79c0-1,5.17-1.75,10.88-1.75s10.88.79,10.88,1.75V14.58C34.88,13.61,29.71,12.83,24,12.83Z"/></svg>