<?xml version="1.0" ?><svg id="Layer_1" style="enable-background:new 0 0 512 512;" version="1.1" viewBox="0 0 512 512" xml:space="preserve" xmlns="http://www.w3.org/2000/svg" xmlns:xlink="http://www.w3.org/1999/xlink"><g id="_x30_16_Home_Delivery"><g><g><g><g><g><rect height="131.551" style="fill:#FC8A8A;" width="75.148" x="382.749" y="3.075"/></g><g><g><polygon points="457.898,97.386 457.898,134.627 424.072,134.627 382.749,104.884 382.749,43.149                 " style="fill:#F96364;"/></g></g><g><polygon points="470.954,183.995 470.954,466.197 98.002,458.197 98.002,175.995 284.479,49.638               " style="fill:#FFFFFF;"/></g><g><polygon points="98.005,184.048 98.005,221.372 284.544,86.988 470.997,221.372 470.997,184.048         284.544,49.664       " style="fill:#EDEDED;"/></g><g><rect height="23.639" style="fill:#EDEDED;" width="372.992" x="97.972" y="442.558"/></g><g><path d="M247.686,185.555c0,20.33,16.496,36.826,36.824,36.826c20.329,0,36.741-16.496,36.741-36.826        c0-20.328-16.412-36.824-36.741-36.824C264.182,148.731,247.686,165.227,247.686,185.555z" style="fill:#FFFFFF;"/><path d="M284.51,225.393c-21.964,0-39.833-17.87-39.833-39.837c0-21.964,17.87-39.834,39.833-39.834        c21.921,0,39.755,17.87,39.755,39.834C324.265,207.523,306.43,225.393,284.51,225.393z M284.51,151.745        c-18.642,0-33.81,15.168-33.81,33.81c0,18.646,15.168,33.814,33.81,33.814c18.599,0,33.732-15.168,33.732-33.814        C318.241,166.913,303.109,151.745,284.51,151.745z" style="fill:#333333;"/></g><rect height="167.222" style="fill:#7BDE9E;" width="99.924" x="331.442" y="298.935"/><g><path d="M345.523,394.946c-1.663,0-3.012-1.349-3.012-3.012v-18.776c0-1.663,1.349-3.012,3.012-3.012        s3.012,1.349,3.012,3.012v18.776C348.534,393.597,347.185,394.946,345.523,394.946z" style="fill:#333333;"/></g><rect height="108.188" style="fill:#7BDE9E;" width="143.83" x="145.586" y="298.935"/><g><g><path d="M289.415,295.923H145.586c-1.663,0-3.012,1.349-3.012,3.012v108.187         c0,1.663,1.349,3.011,3.012,3.011h143.829c1.663,0,3.012-1.349,3.012-3.011V298.935         C292.427,297.272,291.078,295.923,289.415,295.923z M286.404,350.018h-65.891v-48.072h65.891V350.018z M214.489,301.946         v48.072h-65.891v-48.072L214.489,301.946L214.489,301.946z M148.598,356.042h65.891v48.068h-65.891V356.042z M220.513,404.11         v-48.068h65.891v48.068H220.513z" style="fill:#333333;"/></g></g><g><g><path d="M508.971,158.135v61.605L284.476,57.981L59.98,219.74v-61.605L267.316,8.617         c10.383-7.432,23.936-7.432,34.319,0L508.971,158.135z" style="fill:#FC8A8A;"/></g></g><g><g><path d="M508.97,158.121v20.745L301.603,29.319c-10.331-7.415-23.912-7.415-34.326,0L59.996,178.866         v-20.745L267.277,8.658c10.414-7.498,23.995-7.498,34.326,0L508.97,158.121z" style="fill:#F96364;"/></g></g><g><g><path d="M508.97,199.028v20.745L284.44,57.98L59.996,219.773v-20.745L278.275,41.65         c3.667-2.666,8.665-2.666,12.33,0L508.97,199.028z" style="fill:#FCB0B0;"/></g></g></g></g></g><g><rect height="21.403" style="fill:#D3D9D9;" width="409.27" x="79.843" y="466.189"/></g><g><rect height="21.403" style="fill:#A8B2B4;" width="24.214" x="464.885" y="466.189"/></g><g><rect height="21.403" style="fill:#A8B2B4;" width="448.984" x="59.986" y="487.585"/></g><g><rect height="21.402" style="fill:#7C8B8E;" width="28.751" x="480.225" y="487.592"/></g><g><g><g><rect height="82.664" style="fill:#FEDD8E;" width="82.664" x="3.031" y="426.324"/></g><g><path d="M85.694,426.31v82.678H3.016V491.25h28.217c20.272,0,36.722-16.407,36.722-36.722V426.31H85.694       z" style="fill:#FDD367;"/></g><g><rect height="82.664" style="fill:#FEDD8E;" width="82.664" x="85.694" y="426.324"/></g><g><path d="M168.358,426.31v82.678H85.68V491.25h28.217c20.272,0,36.722-16.407,36.722-36.722V426.31       H168.358z" style="fill:#FDD367;"/></g></g><g><rect height="82.664" style="fill:#FEDD8E;" width="82.664" x="44.363" y="343.66"/></g><g><path d="M127.046,343.639v82.678H44.368v-17.738h28.217c20.272,0,36.722-16.407,36.722-36.722v-28.218      H127.046z" style="fill:#FDD367;"/></g><g><g><rect height="25.203" style="fill:#FC8A8A;" width="20.08" x="34.323" y="426.324"/></g><g><rect height="25.203" style="fill:#FC8A8A;" width="20.08" x="75.654" y="343.66"/></g><g><rect height="25.203" style="fill:#FC8A8A;" width="20.08" x="116.986" y="426.324"/></g></g><g><g><path d="M54.418,426.317v25.211h-20.1v-7.645h4.811c4.209,0,7.644-3.393,7.644-7.645v-9.921H54.418z" style="fill:#F96364;"/></g><g><path d="M95.736,343.639v25.211h-20.1v-7.602h4.81c4.252,0,7.645-3.436,7.645-7.645v-9.964       L95.736,343.639L95.736,343.639z" style="fill:#F96364;"/></g><g><path d="M137.053,426.317v25.211h-20.057v-7.645h4.811c4.209,0,7.644-3.393,7.644-7.645v-9.921H137.053z       " style="fill:#F96364;"/></g></g><path d="M507.209,222.181c0.522,0.376,1.141,0.569,1.761,0.569c0.471,0,0.941-0.11,1.373-0.329     c1.008-0.518,1.639-1.553,1.639-2.682v-61.605c0-0.969-0.467-1.878-1.251-2.443l-49.817-35.924V3.074     c0-1.687-1.366-3.012-3.012-3.012h-75.17c-1.687,0-3.012,1.325-3.012,3.012v58.143L303.387,6.172     c-11.494-8.227-26.34-8.231-37.834,0.004L58.217,155.691c-0.784,0.565-1.251,1.474-1.251,2.443v61.605     c0,1.129,0.631,2.165,1.639,2.682c1,0.506,2.216,0.427,3.133-0.239l33.241-23.951v142.42H44.362     c-1.663,0-3.012,1.349-3.012,3.012v79.651H3.03c-1.663,0-3.012,1.349-3.012,3.012v82.663c0,1.663,1.349,3.011,3.012,3.011     h165.326c0.07,0,0.127-0.035,0.196-0.04V512h340.416c1.663,0,3.012-1.349,3.012-3.011v-21.403c0-1.663-1.349-3.012-3.012-3.012     h-16.846V466.19c0-1.663-1.349-3.012-3.012-3.012h-15.148V198.227L507.209,222.181z M385.743,6.084h69.147v109.338     l-69.147-49.863V6.084z M78.668,346.674h14.054v19.179H78.668V346.674z M47.375,346.674h25.27v22.191     c0,1.663,1.349,3.012,3.012,3.012h20.078c1.663,0,3.012-1.349,3.012-3.012v-22.191h25.27v76.64h-76.64v-76.64H47.375z      M127.026,429.337h7.027v19.179h-14.054v-19.179H127.026z M37.332,429.337h7.031h7.027v19.179H37.332V429.337z M82.683,505.976     H6.043v-76.64h25.265v22.191c0,1.663,1.349,3.011,3.012,3.011h20.082c1.663,0,3.011-1.349,3.011-3.011v-22.19h25.27     L82.683,505.976L82.683,505.976z M165.346,505.976h-76.64v-76.64h25.269v22.191c0,1.663,1.349,3.011,3.012,3.011h20.078     c1.663,0,3.012-1.349,3.012-3.011v-22.19h25.27L165.346,505.976L165.346,505.976z M130.038,423.313v-79.651     c0-1.663-1.349-3.012-3.012-3.012h-26.023V193.89L284.474,61.694L467.94,193.887V463.17h-33.563V298.935     c0-1.663-1.349-3.012-3.012-3.012H331.44c-1.663,0-3.012,1.349-3.012,3.012V463.17h-157.06v-36.844     c0-1.663-1.349-3.012-3.012-3.012L130.038,423.313L130.038,423.313z M428.354,301.946v161.201h-93.902V301.946H428.354z      M505.959,490.597v15.38H171.37v-15.38H505.959z M486.101,469.201v15.372H171.37v-15.372H486.101z M286.235,55.537     c-0.526-0.38-1.145-0.569-1.761-0.569s-1.235,0.188-1.761,0.569L62.989,213.855v-54.182L269.066,11.064     c9.36-6.694,21.454-6.706,30.807-0.004l206.085,148.613v54.182L286.235,55.537z" style="fill:#333333;"/></g></g></g></svg>