<svg width="24px" height="24px" viewBox="0 0 24 24" id="magicoon-Regular" xmlns="http://www.w3.org/2000/svg"><defs><style>.cls-1{fill:#41416d;}</style></defs><title>settings</title><g id="settings-Regular"><path id="settings-Regular-2" data-name="settings-Regular" class="cls-1" d="M12,15.75A3.75,3.75,0,1,1,15.75,12,3.754,3.754,0,0,1,12,15.75Zm0-6A2.25,2.25,0,1,0,14.25,12,2.252,2.252,0,0,0,12,9.75Zm.5,12h-1A2.252,2.252,0,0,1,9.25,19.5a.363.363,0,0,0-.22-.34l-.008,0a.33.33,0,0,0-.36.072,2.291,2.291,0,0,1-3.2.021l-.7-.706a2.251,2.251,0,0,1,0-3.187.366.366,0,0,0,.077-.393.337.337,0,0,0-.309-.214A2.258,2.258,0,0,1,2.25,12.5v-1A2.252,2.252,0,0,1,4.5,9.25a.36.36,0,0,0,.339-.22l0-.008a.332.332,0,0,0-.072-.36,2.25,2.25,0,0,1-.021-3.2l.709-.709a2.3,2.3,0,0,1,3.182,0,.366.366,0,0,0,.4.086.334.334,0,0,0,.212-.308A2.258,2.258,0,0,1,11.5,2.25h1A2.252,2.252,0,0,1,14.75,4.5a.342.342,0,0,0,.21.333h0a.362.362,0,0,0,.383-.063,2.241,2.241,0,0,1,1.6-.676h0a2.235,2.235,0,0,1,1.591.659l.706.705a2.25,2.25,0,0,1,0,3.182.343.343,0,0,0-.091.385l.006.014a.332.332,0,0,0,.307.21A2.258,2.258,0,0,1,21.75,11.5v1a2.252,2.252,0,0,1-2.25,2.25.342.342,0,0,0-.333.21v0a.365.365,0,0,0,.063.383,2.25,2.25,0,0,1,.017,3.2l-.7.706a2.3,2.3,0,0,1-3.182,0,.344.344,0,0,0-.385-.091.353.353,0,0,0-.224.313A2.258,2.258,0,0,1,12.5,21.75ZM9.691,17.818a1.867,1.867,0,0,1,1.059,1.654.757.757,0,0,0,.75.778h1a.75.75,0,0,0,.75-.75,1.871,1.871,0,0,1,1.155-1.729,1.824,1.824,0,0,1,1.993.4.755.755,0,0,0,1.082.021l.706-.7a.752.752,0,0,0,0-1.063,1.874,1.874,0,0,1-.413-2.01l0-.014.007-.017a1.821,1.821,0,0,1,1.691-1.13.756.756,0,0,0,.776-.75v-1a.75.75,0,0,0-.75-.75,1.838,1.838,0,0,1-1.719-1.13l0,0A1.836,1.836,0,0,1,18.168,7.6a.766.766,0,0,0,.241-.552.743.743,0,0,0-.22-.53l-.7-.706a.75.75,0,0,0-.531-.219h0a.74.74,0,0,0-.531.221,1.878,1.878,0,0,1-2.01.413l-.014,0-.017-.007a1.821,1.821,0,0,1-1.13-1.691.756.756,0,0,0-.75-.776h-1a.75.75,0,0,0-.75.75A1.838,1.838,0,0,1,9.608,6.224,1.861,1.861,0,0,1,7.6,5.832.757.757,0,0,0,6.52,5.811l-.709.709a.75.75,0,0,0,0,1.061A1.838,1.838,0,0,1,6.229,9.6a.932.932,0,0,1-.047.1A1.867,1.867,0,0,1,4.528,10.75a.757.757,0,0,0-.778.75v1a.75.75,0,0,0,.75.75,1.833,1.833,0,0,1,1.718,1.134l.006.013,0,.014a1.87,1.87,0,0,1-.4,2,.751.751,0,0,0-.015,1.075l.706.7a.768.768,0,0,0,1.061,0A1.839,1.839,0,0,1,9.6,17.771.932.932,0,0,1,9.691,17.818Z"/></g></svg>