<svg width="128" height="128" viewBox="0 0 128 128" fill="none" xmlns="http://www.w3.org/2000/svg">
<path d="M7.44942 123.27C9.71942 125.73 19.0694 121.44 26.4494 118C31.9794 115.43 54.1094 106.35 65.1094 101.64C68.0794 100.37 72.3994 98.7105 75.5094 94.6205C78.2694 90.9805 85.5894 75.5205 70.8494 59.8605C55.8894 43.9605 40.4794 48.3505 34.7194 52.4305C31.3294 54.8305 28.5694 60.2405 27.3294 62.9905C22.0894 74.6105 14.6194 95.9005 11.5794 104.27C9.34942 110.44 5.19942 120.83 7.44942 123.27Z" fill="#FFC107"/>
<path d="M25.8495 66.4902C25.9895 68.2302 26.3395 71.0602 27.5395 76.5102C28.3595 80.2502 29.6995 84.1702 30.7895 86.7602C34.0595 94.5502 38.6495 97.6902 43.2995 100.21C51.1995 104.49 56.5695 105.29 56.5695 105.29L50.1295 107.92C50.1295 107.92 46.2295 107.11 40.9095 104.49C35.8395 101.99 30.5595 97.7602 26.6995 89.4802C25.0295 85.8902 24.0595 82.4102 23.4995 79.6502C22.8095 76.2302 22.6995 74.2902 22.6995 74.2902L25.8495 66.4902ZM17.9395 86.7702C17.9395 86.7702 18.7395 93.2602 24.0995 101.45C30.3795 111.03 39.1495 112.6 39.1495 112.6L33.3195 115C33.3195 115 26.8095 113.01 20.6195 104.56C16.7595 99.2902 15.6795 92.9902 15.6795 92.9902L17.9395 86.7702ZM12.3895 102.15C12.3895 102.15 13.8495 107.75 17.0495 111.93C20.8595 116.92 25.7095 118.37 25.7095 118.37L21.2395 120.35C21.2395 120.35 17.8495 119.64 14.1395 114.94C11.3195 111.37 10.5195 107.27 10.5195 107.27L12.3895 102.15Z" fill="#FF8F00"/>
<path opacity="0.44" d="M9.96127 116.37C9.76127 115.92 9.76127 115.41 9.97127 114.97L35.4413 62.1504L39.6313 77.9004L12.8313 116.61C12.1113 117.69 10.4913 117.55 9.96127 116.37Z" fill="#FFFDE7"/>
<path d="M41.6515 83.1901C53.5515 97.1101 67.1015 95.3701 71.6115 91.8501C76.1315 88.3201 79.7015 76.1901 67.8515 62.5001C55.4315 48.1601 41.3715 52.2501 38.1215 55.3501C34.8715 58.4501 30.7315 70.4201 41.6515 83.1901Z" fill="url(#paint0_linear_114_318)"/>
<path d="M82.5214 88.9198C78.1814 85.2798 75.8714 85.9298 72.7714 87.2198C68.7714 88.8798 62.4814 90.1098 53.9414 87.2198L56.5114 81.0298C61.5814 82.7398 65.2514 81.9098 68.4214 80.0398C72.5014 77.6398 78.0814 74.3498 86.7614 81.6398C90.3814 84.6798 94.0914 86.6998 96.8114 85.7798C98.7914 85.1198 99.8414 82.1698 100.371 79.8198C100.421 79.6098 100.501 79.0098 100.561 78.4798C101.041 74.8098 101.841 66.8898 107.741 62.8398C114.051 58.5098 120.681 58.5098 120.681 58.5098L121.881 70.4298C118.831 69.9798 116.711 70.5998 114.921 71.5898C108.181 75.3398 114.051 89.7398 103.561 94.5798C93.4714 99.2698 85.2214 91.1798 82.5214 88.9198Z" fill="#03A9F4"/>
<path d="M45.4012 73.72L41.0612 69.83C49.0312 60.93 46.9312 54.39 45.4012 49.63C45.0912 48.67 44.8012 47.76 44.6112 46.89C43.9312 43.81 43.7912 41.13 44.0012 38.79C40.9412 34.98 39.5912 30.99 39.5012 30.72C37.6412 25.09 39.0412 19.6 42.2512 14.45C48.7412 4 60.4912 4 60.4912 4L64.4112 14.49C61.4312 14.37 51.6612 14.52 48.6612 19.25C44.8712 25.21 47.3612 28.89 47.5412 29.31C48.2712 28.36 49.0112 27.6 49.6712 27.01C54.4612 22.76 58.6212 22.15 61.2712 22.39C64.2512 22.66 66.9512 24.16 68.8812 26.62C70.9912 29.32 71.8612 32.83 71.1912 36.02C70.5412 39.13 68.4712 41.76 65.3612 43.43C59.9312 46.35 55.4112 45.95 52.3812 44.94C52.4012 45.01 52.4112 45.09 52.4312 45.16C52.5412 45.66 52.7612 46.36 53.0212 47.17C54.7912 52.65 58.0812 61.35 45.4012 73.72ZM52.7512 36.19C53.3312 36.61 53.9412 36.96 54.5712 37.21C56.6712 38.05 58.9612 37.77 61.5612 36.37C63.0912 35.55 63.2712 34.67 63.3312 34.38C63.5112 33.51 63.2112 32.4 62.5612 31.57C61.9912 30.84 61.3312 30.46 60.5412 30.38C59.0412 30.25 57.0112 31.2 54.9812 33.01C54.0112 33.88 53.2712 34.95 52.7512 36.19Z" fill="#F44336"/>
<path d="M62.7686 75.3503L56.5586 75.1804C56.5586 75.1804 59.5086 58.5204 69.0586 55.7204C70.8486 55.2004 72.8086 54.6704 74.7786 54.3804C75.9486 54.2004 77.7986 53.9304 78.7086 53.5904C78.9186 52.0204 78.2586 50.0204 77.5186 47.7504C76.9386 45.9904 76.3386 44.1804 76.0186 42.2004C75.3986 38.3404 76.4286 34.9304 78.9186 32.5804C81.9586 29.7304 86.8686 28.8204 92.4086 30.0804C95.5686 30.8004 97.8986 32.3503 99.9486 33.7104C102.879 35.6604 104.589 36.6504 108.169 34.2404C112.499 31.3204 106.839 19.8904 103.829 13.2904L115.059 8.61035C116.569 11.9104 123.859 28.8904 119.049 38.5804C117.429 41.8404 114.639 44.0004 110.979 44.8104C103.019 46.5904 98.3586 43.4903 94.9586 41.2304C93.3486 40.1604 91.9386 39.3204 90.4086 38.8804C79.7786 35.8504 94.6186 51.4904 87.6686 58.5204C83.4986 62.7304 73.3086 63.8404 72.6486 64.0004C66.0886 65.5804 62.7686 75.3503 62.7686 75.3503Z" fill="#F48FB1"/>
<path d="M43.9889 38.79C43.7989 40.99 43.7089 42.3 44.2789 45.16C47.0289 47.18 53.0189 47.18 53.0189 47.18C52.7589 46.37 52.5289 45.67 52.4289 45.17C52.4089 45.1 52.3989 45.02 52.3789 44.95C46.2889 41.91 43.9889 38.79 43.9889 38.79Z" fill="#C92B27"/>
<path d="M31.5314 48.6399L21.1914 43.5699L26.3414 36.1299L34.4514 41.4999L31.5314 48.6399Z" fill="#FFC107"/>
<path d="M16.2891 34.5996C11.0091 33.8896 5.62906 29.4096 5.03906 28.8996L10.2291 22.8096C11.7991 24.1396 15.1291 26.3696 17.3591 26.6696L16.2891 34.5996Z" fill="#FB8C00"/>
<path d="M25.6117 21.27L18.0117 18.78C18.8817 16.12 19.1117 13.25 18.6617 10.48L26.5617 9.20996C27.2117 13.23 26.8817 17.4 25.6117 21.27Z" fill="#03A9F4"/>
<path d="M73.0742 15.3252L80.8892 13.6152L83.1462 23.9312L75.3312 25.6412L73.0742 15.3252Z" fill="#FB8C00"/>
<path d="M92.4609 17.7701L86.9609 11.9601C89.8409 9.23012 90.5009 5.66012 90.5009 5.62012L98.4009 6.91012C98.3009 7.54012 97.2909 13.2001 92.4609 17.7701Z" fill="#FFC107"/>
<path d="M95.5156 48.5805L102.503 46.3965L104.889 54.0325L97.9016 56.2165L95.5156 48.5805Z" fill="#FB8C00"/>
<path d="M97.55 113.03L89.6 112.09C89.94 109.26 87.83 105.79 87.25 105.02L93.65 100.22C94.13 100.85 98.3 106.62 97.55 113.03Z" fill="#F44336"/>
<path d="M120.371 102.89C117.381 102.44 114.321 102.26 111.301 102.37L111.031 94.3696C114.541 94.2496 118.091 94.4496 121.561 94.9796L120.371 102.89Z" fill="#FB8C00"/>
<path d="M109.613 113.902L115.233 108.209L122.968 115.847L117.348 121.539L109.613 113.902Z" fill="#F48FB1"/>
<path d="M93.1012 63.334L98.8812 69.943L92.2722 75.723L86.4922 69.114L93.1012 63.334Z" fill="#F44336"/>
<defs>
<linearGradient id="paint0_linear_114_318" x1="74.3855" y1="61.8391" x2="44.6185" y2="79.6991" gradientUnits="userSpaceOnUse">
<stop offset="0.024" stop-color="#8F4700"/>
<stop offset="1" stop-color="#703E2D"/>
</linearGradient>
</defs>
</svg>
